<svg width="378" height="357" viewBox="0 0 378 357" fill="none" xmlns="http://www.w3.org/2000/svg">
<path d="M189.327 66.197H124.74V153.774H189.327V66.197Z" fill="#CFD4D7"/>
<path d="M181.805 76.3979H132.264V143.568H181.805V76.3979Z" fill="#F4F4F4"/>
<path d="M92.4464 111.262H27.8594V198.839H92.4464V111.262Z" fill="#CFD4D7"/>
<path d="M84.9264 121.46H35.3848V188.631H84.9264V121.46Z" fill="#F4F4F4"/>
<path d="M285.764 133.911C306.259 131.806 321.207 113.04 319.151 91.9955C317.095 70.9511 298.814 55.5974 278.319 57.7022C257.824 59.8069 242.876 78.5731 244.932 99.6175C246.988 120.662 265.269 136.016 285.764 133.911Z" fill="#CFD4D7" stroke="#516878" stroke-linecap="round" stroke-linejoin="round"/>
<path d="M286.569 127.221C303.45 124.643 315.1 108.501 312.589 91.1664C310.078 73.8322 294.358 61.8701 277.476 64.4484C260.595 67.0266 248.946 83.1688 251.456 100.503C253.967 117.837 269.688 129.799 286.569 127.221Z" fill="#F4F4F4"/>
<path d="M262.314 95.8083H282.03V125.015" stroke="#516878" stroke-linecap="round" stroke-linejoin="round"/>
<path d="M256.979 278.168L270.062 299.807C270.442 300.435 270.651 301.155 270.668 301.893C270.686 302.631 270.51 303.361 270.161 304.006C269.811 304.651 269.3 305.189 268.68 305.563C268.06 305.937 267.353 306.134 266.634 306.133H239.913C240.631 306.133 241.335 305.937 241.954 305.564C242.573 305.192 243.084 304.657 243.434 304.014C243.784 303.371 243.961 302.644 243.946 301.907C243.931 301.171 243.725 300.452 243.35 299.824L230.73 278.653L256.979 278.168Z" fill="white" stroke="#263238" stroke-linecap="round" stroke-linejoin="round"/>
<path d="M256.978 278.168L230.688 278.653L235.556 286.798H262.194L256.978 278.168Z" fill="#263238" stroke="#263238" stroke-linecap="round" stroke-linejoin="round"/>
<path d="M187.081 282.982H294.014C295.345 282.982 296.424 281.875 296.424 280.508V188.544C296.424 187.178 295.345 186.07 294.014 186.07H187.081C185.75 186.07 184.672 187.178 184.672 188.544V280.508C184.672 281.875 185.75 282.982 187.081 282.982Z" fill="white" stroke="#263238" stroke-linecap="round" stroke-linejoin="round"/>
<path d="M182.849 282.982H289.782C291.113 282.982 292.191 281.875 292.191 280.508V188.544C292.191 187.178 291.113 186.07 289.782 186.07H182.849C181.518 186.07 180.439 187.178 180.439 188.544V280.508C180.439 281.875 181.518 282.982 182.849 282.982Z" fill="white" stroke="#263238" stroke-linecap="round" stroke-linejoin="round"/>
<path d="M184.201 186.072H288.443C288.936 186.072 289.424 186.172 289.88 186.366C290.336 186.56 290.749 186.845 291.098 187.203C291.446 187.562 291.722 187.987 291.91 188.456C292.098 188.924 292.195 189.426 292.194 189.932V265.605H180.408V189.932C180.408 189.423 180.507 188.918 180.698 188.447C180.888 187.977 181.168 187.55 181.521 187.191C181.874 186.832 182.292 186.548 182.752 186.356C183.212 186.164 183.704 186.068 184.201 186.072Z" fill="#263238" stroke="#263238" stroke-linecap="round" stroke-linejoin="round"/>
<path d="M185.136 260.326H287.498V189.933H185.136V260.326Z" fill="#E1E1E1" stroke="#263238" stroke-linecap="round" stroke-linejoin="round"/>
<path d="M212.565 197.166V204.935H211.193L208.518 199.727V204.935H207.146V197.166H208.518L211.198 202.379V197.166H212.565Z" fill="black"/>
<path d="M219.227 200.869V201.237C219.227 201.828 219.159 202.358 219.022 202.828C218.885 203.297 218.691 203.697 218.441 204.028C218.191 204.355 217.892 204.606 217.545 204.781C217.2 204.955 216.818 205.042 216.397 205.042C215.979 205.042 215.597 204.955 215.249 204.781C214.905 204.606 214.606 204.355 214.353 204.028C214.1 203.697 213.903 203.297 213.763 202.828C213.626 202.358 213.557 201.828 213.557 201.237V200.869C213.557 200.275 213.626 199.745 213.763 199.279C213.9 198.81 214.094 198.409 214.344 198.078C214.597 197.748 214.896 197.495 215.24 197.321C215.588 197.146 215.97 197.059 216.388 197.059C216.809 197.059 217.191 197.146 217.536 197.321C217.883 197.495 218.182 197.748 218.432 198.078C218.685 198.409 218.88 198.81 219.017 199.279C219.157 199.745 219.227 200.275 219.227 200.869ZM217.842 201.237V200.859C217.842 200.446 217.81 200.083 217.746 199.77C217.682 199.457 217.587 199.194 217.462 198.98C217.337 198.767 217.185 198.607 217.005 198.5C216.825 198.39 216.62 198.335 216.388 198.335C216.156 198.335 215.95 198.39 215.771 198.5C215.594 198.607 215.443 198.767 215.318 198.98C215.196 199.194 215.103 199.457 215.039 199.77C214.975 200.083 214.943 200.446 214.943 200.859V201.237C214.943 201.647 214.975 202.009 215.039 202.326C215.103 202.639 215.197 202.904 215.322 203.121C215.447 203.335 215.6 203.496 215.78 203.607C215.96 203.717 216.165 203.772 216.397 203.772C216.629 203.772 216.834 203.717 217.014 203.607C217.194 203.496 217.345 203.335 217.467 203.121C217.589 202.904 217.682 202.639 217.746 202.326C217.81 202.009 217.842 201.647 217.842 201.237Z" fill="black"/>
<path d="M222.881 197.166V204.935H221.514V197.166H222.881ZM224.93 197.166V198.42H219.497V197.166H224.93Z" fill="black"/>
<path d="M227.925 198.495L226.114 204.935H224.655L227.129 197.166H228.057L227.925 198.495ZM229.429 204.935L227.614 198.495L227.467 197.166H228.405L230.892 204.935H229.429ZM229.347 202.043V203.297H225.83V202.043H229.347Z" fill="black"/>
<path d="M235.213 197.166V204.935H233.842V197.166H235.213ZM237.866 200.485V201.734H234.839V200.485H237.866ZM238.186 197.166V198.42H234.839V197.166H238.186Z" fill="black"/>
<path d="M240.44 197.166V204.935H239.073V197.166H240.44Z" fill="black"/>
<path d="M245.191 202.902C245.191 202.764 245.173 202.639 245.136 202.529C245.103 202.415 245.039 202.312 244.944 202.219C244.85 202.123 244.717 202.029 244.546 201.936C244.376 201.844 244.155 201.748 243.883 201.648C243.581 201.534 243.295 201.406 243.024 201.264C242.755 201.122 242.518 200.956 242.31 200.768C242.106 200.576 241.944 200.353 241.826 200.101C241.71 199.848 241.652 199.555 241.652 199.22C241.652 198.897 241.713 198.603 241.835 198.34C241.957 198.073 242.127 197.845 242.347 197.657C242.566 197.465 242.825 197.317 243.124 197.214C243.426 197.111 243.757 197.059 244.116 197.059C244.607 197.059 245.036 197.162 245.401 197.369C245.767 197.575 246.051 197.858 246.252 198.217C246.456 198.577 246.558 198.987 246.558 199.45H245.196C245.196 199.222 245.154 199.023 245.072 198.852C244.993 198.678 244.871 198.541 244.706 198.441C244.545 198.342 244.341 198.292 244.094 198.292C243.856 198.292 243.658 198.335 243.499 198.42C243.341 198.502 243.222 198.614 243.142 198.756C243.063 198.895 243.024 199.051 243.024 199.226C243.024 199.357 243.051 199.477 243.106 199.583C243.164 199.69 243.249 199.79 243.362 199.882C243.475 199.975 243.613 200.062 243.778 200.144C243.943 200.225 244.133 200.305 244.35 200.384C244.712 200.512 245.031 200.656 245.305 200.816C245.583 200.976 245.814 201.156 246 201.355C246.186 201.554 246.327 201.78 246.421 202.033C246.516 202.285 246.563 202.571 246.563 202.892C246.563 203.23 246.506 203.532 246.394 203.799C246.281 204.066 246.118 204.291 245.904 204.476C245.691 204.661 245.436 204.802 245.141 204.898C244.845 204.994 244.514 205.042 244.148 205.042C243.819 205.042 243.495 204.992 243.174 204.893C242.854 204.789 242.563 204.635 242.301 204.428C242.042 204.222 241.835 203.959 241.679 203.639C241.524 203.318 241.446 202.94 241.446 202.502H242.822C242.822 202.744 242.854 202.949 242.918 203.116C242.982 203.283 243.072 203.418 243.188 203.521C243.307 203.624 243.447 203.699 243.609 203.745C243.774 203.792 243.953 203.815 244.148 203.815C244.386 203.815 244.581 203.776 244.734 203.697C244.889 203.619 245.004 203.511 245.077 203.372C245.153 203.233 245.191 203.077 245.191 202.902Z" fill="black"/>
<path d="M251.355 202.358H252.722C252.695 202.881 252.571 203.345 252.352 203.751C252.135 204.156 251.832 204.473 251.442 204.701C251.055 204.928 250.588 205.042 250.043 205.042C249.616 205.042 249.233 204.957 248.895 204.786C248.557 204.612 248.267 204.363 248.026 204.039C247.788 203.715 247.607 203.324 247.482 202.865C247.357 202.406 247.294 201.892 247.294 201.323V200.784C247.294 200.215 247.358 199.701 247.487 199.242C247.618 198.779 247.804 198.386 248.044 198.062C248.288 197.739 248.579 197.49 248.918 197.315C249.256 197.141 249.634 197.054 250.052 197.054C250.607 197.054 251.075 197.171 251.456 197.406C251.84 197.641 252.137 197.965 252.347 198.377C252.561 198.79 252.689 199.26 252.731 199.786H251.36C251.344 199.473 251.291 199.208 251.2 198.991C251.108 198.77 250.969 198.605 250.783 198.495C250.6 198.381 250.357 198.324 250.052 198.324C249.823 198.324 249.623 198.374 249.453 198.473C249.282 198.573 249.139 198.724 249.023 198.927C248.907 199.13 248.82 199.386 248.762 199.695C248.707 200.001 248.68 200.361 248.68 200.773V201.323C248.68 201.725 248.706 202.079 248.758 202.385C248.81 202.687 248.889 202.943 248.995 203.153C249.105 203.359 249.245 203.516 249.416 203.623C249.59 203.726 249.799 203.777 250.043 203.777C250.329 203.777 250.565 203.724 250.751 203.617C250.937 203.511 251.079 203.352 251.177 203.142C251.277 202.933 251.337 202.671 251.355 202.358Z" fill="black"/>
<path d="M256.33 198.495L254.519 204.935H253.061L255.534 197.166H256.463L256.33 198.495ZM257.834 204.935L256.019 198.495L255.873 197.166H256.81L259.298 204.935H257.834ZM257.752 202.043V203.297H254.236V202.043H257.752Z" fill="black"/>
<path d="M264.195 203.687V204.935H260.843V203.687H264.195ZM261.287 197.166V204.935H259.915V197.166H261.287Z" fill="black"/>
<path d="M283.87 208.819H189.391V214.821H283.87V208.819Z" fill="#B21512"/>
<path d="M189.699 253.686V218.927H283.259V254.953" stroke="#263238" stroke-miterlimit="10"/>
<path d="M190.018 230.622H282.957" stroke="#263238" stroke-miterlimit="10"/>
<path d="M257.408 218.673V254.954" stroke="#263238" stroke-miterlimit="10"/>
<path d="M139.323 301.285H136.068V302.399H139.323V301.285Z" fill="white" stroke="#263238" stroke-linecap="round" stroke-linejoin="round"/>
<path d="M143.649 301.285H140.395V302.399H143.649V301.285Z" fill="white" stroke="#263238" stroke-linecap="round" stroke-linejoin="round"/>
<path d="M147.989 301.285H144.734V302.399H147.989V301.285Z" fill="white" stroke="#263238" stroke-linecap="round" stroke-linejoin="round"/>
<path d="M152.321 301.285H149.066V302.399H152.321V301.285Z" fill="white" stroke="#263238" stroke-linecap="round" stroke-linejoin="round"/>
<path d="M156.658 301.285H153.404V302.399H156.658V301.285Z" fill="white" stroke="#263238" stroke-linecap="round" stroke-linejoin="round"/>
<path d="M160.991 301.285H157.736V302.399H160.991V301.285Z" fill="white" stroke="#263238" stroke-linecap="round" stroke-linejoin="round"/>
<path d="M165.33 301.285H162.076V302.399H165.33V301.285Z" fill="white" stroke="#263238" stroke-linecap="round" stroke-linejoin="round"/>
<path d="M169.658 301.285H166.404V302.399H169.658V301.285Z" fill="white" stroke="#263238" stroke-linecap="round" stroke-linejoin="round"/>
<path d="M173.998 301.285H170.744V302.399H173.998V301.285Z" fill="white" stroke="#263238" stroke-linecap="round" stroke-linejoin="round"/>
<path d="M178.33 301.285H175.076V302.399H178.33V301.285Z" fill="white" stroke="#263238" stroke-linecap="round" stroke-linejoin="round"/>
<path d="M182.67 301.285H179.416V302.399H182.67V301.285Z" fill="white" stroke="#263238" stroke-linecap="round" stroke-linejoin="round"/>
<path d="M186.998 301.285H183.744V302.399H186.998V301.285Z" fill="white" stroke="#263238" stroke-linecap="round" stroke-linejoin="round"/>
<path d="M191.34 301.285H188.086V302.399H191.34V301.285Z" fill="white" stroke="#263238" stroke-linecap="round" stroke-linejoin="round"/>
<path d="M195.67 301.285H192.416V302.399H195.67V301.285Z" fill="white" stroke="#263238" stroke-linecap="round" stroke-linejoin="round"/>
<path d="M200.008 301.285H196.754V302.399H200.008V301.285Z" fill="white" stroke="#263238" stroke-linecap="round" stroke-linejoin="round"/>
<path d="M204.342 301.285H201.088V302.399H204.342V301.285Z" fill="white" stroke="#263238" stroke-linecap="round" stroke-linejoin="round"/>
<path d="M208.676 301.285H205.422V302.399H208.676V301.285Z" fill="white" stroke="#263238" stroke-linecap="round" stroke-linejoin="round"/>
<path d="M213.006 301.285H209.752V302.399H213.006V301.285Z" fill="white" stroke="#263238" stroke-linecap="round" stroke-linejoin="round"/>
<path d="M217.35 301.285H214.096V302.399H217.35V301.285Z" fill="white" stroke="#263238" stroke-linecap="round" stroke-linejoin="round"/>
<path d="M221.68 301.285H218.426V302.399H221.68V301.285Z" fill="white" stroke="#263238" stroke-linecap="round" stroke-linejoin="round"/>
<path d="M226.014 301.285H222.76V302.399H226.014V301.285Z" fill="white" stroke="#263238" stroke-linecap="round" stroke-linejoin="round"/>
<path d="M228.376 302.559H134.385V306.155H228.376V302.559Z" fill="white" stroke="#263238" stroke-linecap="round" stroke-linejoin="round"/>
<path d="M228.378 302.559H205.449V306.155H228.378V302.559Z" fill="#263238" stroke="#263238" stroke-linecap="round" stroke-linejoin="round"/>
<path d="M319.23 224.871V212.432H310.536V224.871H304.748L314.883 242.896L325.01 224.871H319.23Z" fill="#263238"/>
<path d="M252.256 180.547V179.271" stroke="#263238" stroke-miterlimit="10"/>
<path d="M252.256 176.764V167.793C252.256 166.215 252.867 164.701 253.954 163.585C255.041 162.469 256.515 161.842 258.052 161.842H309.391C310.928 161.842 312.402 162.469 313.489 163.585C314.576 164.701 315.187 166.215 315.187 167.793V206.48" stroke="#263238" stroke-miterlimit="10" stroke-dasharray="2.95 2.95"/>
<path d="M315.188 207.755V209.031" stroke="#263238" stroke-miterlimit="10"/>
<path d="M285.175 250.269H337.756C339.128 250.269 340.445 250.829 341.415 251.826C342.386 252.822 342.931 254.174 342.931 255.583V298.53H280V255.583C280 254.174 280.545 252.822 281.516 251.826C282.486 250.829 283.803 250.269 285.175 250.269Z" fill="#263238" stroke="#263238" stroke-miterlimit="10"/>
<path d="M339.617 244.321H283.311V298.534H339.617V244.321Z" fill="white" stroke="#263238" stroke-miterlimit="10"/>
<path d="M251.314 270.33H350.025C350.864 270.33 351.668 270.673 352.262 271.282C352.855 271.891 353.188 272.717 353.188 273.578V305.761H251.339V270.33H251.314Z" fill="#263238" stroke="#263238" stroke-miterlimit="10"/>
<path d="M238.233 270.33H336.149C336.674 270.33 337.177 270.544 337.549 270.926C337.92 271.307 338.128 271.824 338.128 272.362V305.761H236.279V272.362C236.279 271.828 236.484 271.315 236.85 270.934C237.216 270.554 237.713 270.337 238.233 270.33Z" fill="#636363" stroke="#263238" stroke-miterlimit="10"/>
<path d="M245.023 270.33H329.368V293.525C329.368 295.426 328.632 297.249 327.323 298.594C326.014 299.938 324.238 300.693 322.387 300.693H252.004C250.152 300.693 248.377 299.938 247.068 298.594C245.759 297.249 245.023 295.426 245.023 293.525V270.33Z" fill="#636363" stroke="#263238" stroke-miterlimit="10"/>
<path d="M313.762 270.33H260.635V305.761H313.762V270.33Z" fill="#263238" stroke="#263238" stroke-miterlimit="10"/>
<path d="M265.285 288.768C265.285 288.768 267.09 297.585 263.017 300.841C258.943 304.098 238.598 303.392 238.598 303.392H305.081C305.081 303.392 313.221 305.484 312.765 290.392L265.285 288.768Z" fill="white" stroke="#263238" stroke-miterlimit="10"/>
<path d="M306.05 302.068H263.488L265.815 300.733H307.722L306.05 302.068Z" fill="#B21512"/>
<path d="M269.029 291.87C269.029 297.26 267.787 299.241 267.787 299.241H308.8C308.8 299.241 310.597 298.111 311.011 292.014" stroke="#A3A3A3" stroke-miterlimit="10"/>
<path d="M268.479 296.69H310.038" stroke="#A3A3A3" stroke-miterlimit="10"/>
<path d="M268.898 293.994H310.599" stroke="#A3A3A3" stroke-miterlimit="10"/>
<path d="M295.684 299.097C295.684 299.097 297.754 297.116 297.613 291.87" stroke="#A3A3A3" stroke-miterlimit="10"/>
<path d="M313.762 270.33H260.635V290.66H313.762V270.33Z" fill="#636363" stroke="#263238" stroke-miterlimit="10"/>
<path d="M313.754 303.432H255.816V305.762H313.754V303.432Z" fill="#263238" stroke="#263238" stroke-miterlimit="10"/>
<path d="M258.711 270.333H315.672V273.147C315.67 274.632 315.095 276.055 314.075 277.107C313.054 278.158 311.669 278.752 310.223 278.759H264.193C262.741 278.759 261.349 278.167 260.322 277.113C259.296 276.059 258.719 274.629 258.719 273.139V270.324L258.711 270.333Z" fill="#263238" stroke="#263238" stroke-miterlimit="10"/>
<path d="M334.844 276.66C334.844 277.022 334.739 277.375 334.544 277.676C334.348 277.976 334.07 278.211 333.745 278.349C333.419 278.487 333.062 278.524 332.716 278.453C332.371 278.382 332.054 278.208 331.805 277.953C331.556 277.697 331.386 277.371 331.317 277.017C331.249 276.662 331.284 276.295 331.419 275.961C331.553 275.626 331.782 275.341 332.074 275.14C332.367 274.939 332.711 274.832 333.063 274.832C333.536 274.832 333.988 275.025 334.322 275.367C334.656 275.71 334.844 276.175 334.844 276.66Z" fill="white" stroke="#263238" stroke-miterlimit="10"/>
<path d="M334.844 284.812C334.844 285.174 334.739 285.527 334.544 285.828C334.348 286.129 334.07 286.363 333.745 286.501C333.419 286.64 333.062 286.676 332.716 286.605C332.371 286.535 332.054 286.361 331.805 286.105C331.556 285.849 331.386 285.524 331.317 285.169C331.249 284.814 331.284 284.447 331.419 284.113C331.553 283.779 331.782 283.493 332.074 283.292C332.367 283.092 332.711 282.984 333.063 282.984C333.536 282.984 333.988 283.177 334.322 283.52C334.656 283.863 334.844 284.328 334.844 284.812Z" fill="white" stroke="#263238" stroke-miterlimit="10"/>
<path d="M333.48 302.863H332.404C332.013 302.863 331.638 302.704 331.361 302.42C331.085 302.136 330.93 301.751 330.93 301.35C330.93 300.947 331.085 300.562 331.361 300.276C331.637 299.991 332.012 299.83 332.404 299.828H333.48C333.674 299.828 333.867 299.867 334.046 299.944C334.225 300.02 334.388 300.132 334.525 300.274C334.662 300.415 334.771 300.583 334.844 300.768C334.918 300.952 334.955 301.15 334.954 301.35C334.954 301.751 334.799 302.136 334.522 302.42C334.246 302.704 333.871 302.863 333.48 302.863Z" fill="#263238" stroke="#263238" stroke-miterlimit="10"/>
<path d="M286.223 352.536V315.541H270.35V352.664" fill="white"/>
<path d="M286.223 352.536V315.541H270.35V352.664" stroke="#263238" stroke-linecap="round" stroke-linejoin="round"/>
<path d="M286.232 315.541H278.291V352.995H286.232V315.541Z" fill="#263238" stroke="#263238" stroke-linecap="round" stroke-linejoin="round"/>
<path d="M357.331 352.536V315.541H341.449V352.664" fill="white"/>
<path d="M357.331 352.536V315.541H341.449V352.664" stroke="#263238" stroke-linecap="round" stroke-linejoin="round"/>
<path d="M357.33 315.541H349.389V352.995H357.33V315.541Z" fill="#263238" stroke="#263238" stroke-linecap="round" stroke-linejoin="round"/>
<path d="M361.56 309.209H37.7969V322.116H361.56V309.209Z" fill="white" stroke="#263238" stroke-miterlimit="10"/>
<path d="M361.562 309.209H283.66V322.116H361.562V309.209Z" fill="#263238" stroke="#263238" stroke-miterlimit="10"/>
<path d="M361.56 305.689H37.7969V310.221H361.56V305.689Z" fill="white" stroke="#263238" stroke-miterlimit="10"/>
<path d="M361.561 305.689H290.723V310.221H361.561V305.689Z" fill="#263238" stroke="#263238" stroke-miterlimit="10"/>
<path d="M140.936 129.174C140.936 129.174 141.524 134.42 141.135 136.435C140.746 138.451 138.584 139.666 138.775 141.078C138.965 142.489 143.884 149.751 141.524 152.174C140.327 153.508 138.848 154.543 137.202 155.201L135.637 158.874C135.637 158.874 126.205 165.132 122.471 166.747C118.736 168.363 122.073 176.023 122.073 176.023L112.443 173.804L110.092 185.232C110.092 185.232 102.821 177.962 92.9925 174.74C83.1637 171.517 79.4375 171.917 79.4375 171.917C81.0306 167.88 82.2154 163.686 82.9732 159.401C84.3478 151.936 85.1344 135.39 85.1344 134.182C85.1344 132.975 91.4192 114.414 96.9257 110.775C102.432 107.136 124.822 111.183 136.614 114.176C148.405 117.169 143.296 125.875 143.296 125.875L140.936 129.174Z" fill="#E9B8A9" stroke="#263238" stroke-miterlimit="10"/>
<path d="M140.548 135.625C140.548 135.625 139.96 133.406 137.402 134.214C134.843 135.021 134.255 136.433 135.24 136.433C136.226 136.433 138.553 135.225 139.174 136.433C139.795 137.64 140.349 137.036 140.548 135.625Z" fill="#263238" stroke="#263238" stroke-miterlimit="10"/>
<path d="M137.014 142.89L135.83 143.502C135.83 143.502 137.602 144.709 136.815 147.532C136.029 150.355 135.242 152.778 135.242 152.778" stroke="#263238" stroke-miterlimit="10"/>
<path d="M129.936 123.723C129.936 123.723 131.708 131.375 130.922 133.008C130.135 134.64 124.239 136.842 123.652 139.062C123.064 141.281 121.888 153.184 122.277 155.404C122.666 157.623 123.652 161.457 124.637 161.457C125.622 161.457 132.917 155.803 135.642 155.599C138.366 155.395 137.207 160.446 135.832 162.061C134.457 163.677 131.692 164.076 131.907 165.896C132.122 167.715 135.642 173.965 131.708 179.415C127.775 184.865 123.262 183.666 118.543 179.814C113.823 175.963 113.044 169.526 114.402 165.896C115.76 162.265 117.938 152.776 118.137 148.542C118.336 144.308 117.35 138.858 114.402 140.039C111.455 141.221 113.814 153.159 111.653 155.778C109.492 158.396 100.839 165.87 98.4874 165.87C96.1358 165.87 83.3509 160.02 82.9617 159.408C82.5725 158.796 84.1375 131.766 82.5725 121.079C81.0075 110.391 84.7337 102.713 96.7154 99.0824C108.697 95.4518 130.541 102.135 130.541 102.135C130.541 102.135 128.38 98.5043 133.091 96.8888C137.803 95.2733 149.006 99.7116 149.793 106.981C150.579 114.251 146.481 114.447 147.044 116.861C147.607 119.276 155.1 123.927 151.184 127.762C147.267 131.596 140.966 129.173 140.966 129.173L140.179 122.915C140.179 122.915 136.031 117.669 129.936 123.723Z" fill="#263238" stroke="#263238" stroke-miterlimit="10"/>
<path d="M130.918 138.858L112.254 138.254C112.254 138.254 108.321 139.257 107.931 141.476C107.542 143.696 107.145 148.942 108.321 149.129C109.496 149.316 109.505 147.921 109.505 146.102C109.505 144.282 109.505 141.459 111.07 140.456C112.419 139.765 113.888 139.351 115.392 139.24L131.315 140.856L146.22 142.072V139.444L130.918 138.858Z" fill="#5E5E5E" stroke="#263238" stroke-miterlimit="10"/>
<path d="M117.557 146.726C117.557 146.726 118.153 140.273 115.007 138.453C111.86 136.634 109.699 141.684 109.509 146.105C109.318 150.527 112.258 155.994 115.992 154.982" fill="#E8B8A9"/>
<path d="M117.557 146.726C117.557 146.726 118.153 140.273 115.007 138.453C111.86 136.634 109.699 141.684 109.509 146.105C109.318 150.527 112.258 155.994 115.992 154.982" stroke="#263238" stroke-miterlimit="10"/>
<path d="M146.272 142.087C146.272 142.087 146.661 146.721 144.897 148.94C144.228 149.747 143.43 150.431 142.537 150.964" stroke="#263238" stroke-miterlimit="10"/>
<path d="M201.041 179.655L193.141 208.046L187.221 224.268L180.803 241.75C180.803 241.75 163.025 241.503 155.134 239.981C147.243 238.459 133.025 233.273 133.025 233.273C140.045 221.769 145.479 209.322 149.172 196.286C152.526 184.247 155.126 174.588 155.126 174.588L201.041 179.655Z" fill="white" stroke="#263238" stroke-miterlimit="10"/>
<path d="M161.473 192.664C161.473 192.664 155.56 214.456 153.143 218.869L181.876 223.282C181.876 223.282 187.25 213.623 191.282 196.797L161.473 192.664Z" stroke="#A3A3A3" stroke-miterlimit="10"/>
<path d="M159.857 197.625L189.675 201.757" stroke="#A3A3A3" stroke-miterlimit="10"/>
<path d="M158.518 204.798L187.168 208.701" stroke="#A3A3A3" stroke-miterlimit="10"/>
<path d="M156.156 212.085L184.906 216.226" stroke="#A3A3A3" stroke-miterlimit="10"/>
<path d="M174.899 214.853L169.26 230.727L178.393 232.657L181.622 221.621" stroke="#A3A3A3" stroke-miterlimit="10"/>
<path d="M142.129 220.52L153.945 222.73" stroke="#A3A3A3" stroke-miterlimit="10"/>
<path d="M141.33 222.17L153.146 224.38" stroke="#A3A3A3" stroke-miterlimit="10"/>
<path d="M140.516 223.832L152.34 226.034" stroke="#A3A3A3" stroke-miterlimit="10"/>
<path d="M156.377 176.566L152.816 189.244L194.384 194.371L198.417 181.685L156.377 176.566Z" fill="#B21512"/>
<path d="M193.473 185.469C193.55 186.113 193.435 186.766 193.142 187.341C192.849 187.917 192.393 188.387 191.833 188.689C191.274 188.991 190.638 189.112 190.011 189.034C189.383 188.957 188.793 188.685 188.32 188.254C187.847 187.824 187.512 187.257 187.36 186.626C187.209 185.996 187.248 185.334 187.472 184.727C187.696 184.12 188.095 183.597 188.615 183.229C189.135 182.86 189.752 182.663 190.384 182.663C191.156 182.617 191.914 182.886 192.493 183.411C193.072 183.937 193.424 184.677 193.473 185.469Z" fill="white"/>
<path d="M164.015 267.353C164.015 267.353 171.417 249.362 172.154 242.262C172.891 235.162 173.388 228.573 175.119 226.549C176.849 224.526 180.799 214.892 181.536 212.095C182.273 209.297 184.02 206.517 185.974 208.541C187.929 210.564 187.216 215.385 186.471 217.162C185.726 218.939 184.741 221.728 184.741 221.728L189.924 215.895L193.137 208.039C193.137 208.039 195.853 208.039 196.341 210.59C196.83 213.141 199.803 216.924 199.057 219.203C198.517 220.649 197.459 221.828 196.101 222.502C196.101 222.502 197.335 228.836 197.087 231.115C196.525 234.109 194.95 236.801 192.64 238.716C190.156 240.74 183.267 247.329 183.267 247.329C183.267 247.329 186.72 274.198 183.267 287.377C179.814 300.556 173.637 304.611 169.19 305.377C164.743 306.142 156.115 296.024 156.115 296.024C156.115 296.024 165.249 291.177 164.015 267.353Z" fill="#E9B8A9" stroke="#263238" stroke-miterlimit="10"/>
<path d="M196.104 222.488L192.154 226.544" stroke="#263238" stroke-miterlimit="10"/>
<path d="M189.928 215.905L193.877 212.606" stroke="#263238" stroke-miterlimit="10"/>
<path d="M76.7154 166.811C76.7154 166.811 83.613 165.111 94.1042 169.651C101.787 172.84 108.538 178.013 113.704 184.667C115.974 187.802 117.828 191.233 119.219 194.87C119.219 194.87 79.1995 179.004 74.7861 179.004H64.8496C64.8496 179.004 70.0911 167.381 76.7154 166.811Z" fill="#1C3D50" stroke="#263238" stroke-miterlimit="10"/>
<path d="M214.171 353.009C182.151 324.1 132.195 324.1 132.195 324.1L124.743 316.737H36.0762V353.426" fill="#1C3D50"/>
<path d="M214.171 353.009C182.151 324.1 132.195 324.1 132.195 324.1L124.743 316.737H36.0762V353.426" stroke="#263238" stroke-miterlimit="10"/>
<path d="M130.265 325.801C130.265 325.801 126.124 344.226 118.117 352.159" stroke="#263238" stroke-miterlimit="10"/>
<path d="M127.784 324.395C124.663 331.656 119.586 337.851 113.152 342.25" stroke="#263238" stroke-miterlimit="10"/>
<path d="M65.9513 175.605C65.9513 175.605 72.0209 174.185 83.8949 176.735C95.769 179.286 113.15 189.77 120.875 193.171C128.601 196.572 134.679 196.861 136.061 201.963C137.444 207.064 152.622 255.24 159.247 260.63C169.009 268.572 178.291 282.516 167.527 294.071C161.176 300.873 152.622 301.443 148.755 300.023C144.888 298.603 135.507 288.689 135.507 285.568V281.598L117.29 260.061C117.29 260.061 121.157 293.79 122.813 298.322C124.469 302.854 128.882 309.376 128.882 312.207C128.882 315.038 122.531 320.71 115.079 325.531C107.627 330.351 100.174 334.603 83.0669 335.453C65.9596 336.303 45.5236 333.463 41.1101 327.512C36.6967 321.56 31.1737 314.477 30.6189 304.555C30.0641 294.632 28.1348 255.529 28.1348 255.529C28.1348 255.529 29.2443 223.78 30.0724 213.296C30.9004 202.813 33.103 196.011 38.3528 193.741C43.6025 191.47 62.3659 175.605 65.9513 175.605Z" fill="#B21512" stroke="#263238" stroke-miterlimit="10"/>
<path d="M74.5234 240.958C75.28 242.18 76.1097 243.352 77.0076 244.469" stroke="#263238" stroke-miterlimit="10"/>
<path d="M62.0879 201.385C62.0879 201.385 65.0523 222.642 72.4715 237.292" stroke="#263238" stroke-miterlimit="10"/>
<path d="M64.0254 228.021C64.0254 228.021 70.0949 248.147 79.4766 258.631" stroke="#263238" stroke-miterlimit="10"/>
<path d="M103.486 243.046L117.29 260.051" stroke="#263238" stroke-miterlimit="10"/>
<path d="M99.3496 237.946L101.503 240.59" stroke="#263238" stroke-miterlimit="10"/>
<path d="M99.9023 245.603L112.878 255.236" stroke="#263238" stroke-miterlimit="10"/>
<path d="M118.391 208.188C118.391 208.188 105.424 220.942 105.698 235.677" stroke="#263238" stroke-miterlimit="10"/>
<path d="M159.25 260.622C159.25 260.622 163.936 269.975 157.039 276.777C150.141 283.579 135.51 281.59 135.51 281.59V285.56C135.51 288.681 144.891 298.595 148.758 300.015C152.625 301.435 161.179 300.865 167.53 294.063C178.311 282.508 169.012 268.555 159.25 260.622Z" fill="#1C3D50" stroke="#263238" stroke-miterlimit="10"/>
<path d="M122.813 298.312L107.908 283.858" stroke="#263238" stroke-miterlimit="10"/>
<path d="M99.625 275.641L114.248 286.414" stroke="#263238" stroke-miterlimit="10"/>
<path d="M78.6562 290.809C79.71 291.597 80.8169 292.307 81.9684 292.934" stroke="#263238" stroke-miterlimit="10"/>
<path d="M46.6309 266.001C46.6309 266.001 63.2413 279.316 73.8071 287.257" stroke="#263238" stroke-miterlimit="10"/>
<path d="M49.9473 274.502C49.9473 274.502 62.0863 283.574 64.0239 284.705" stroke="#263238" stroke-miterlimit="10"/>
<path d="M35.9367 280.888H101.352C103.383 280.888 105.331 281.717 106.768 283.192C108.204 284.666 109.011 286.667 109.011 288.753V346.145C109.011 347.667 108.422 349.127 107.374 350.203C106.326 351.28 104.904 351.884 103.422 351.884H33.8666C32.3842 351.884 30.9626 351.28 29.9144 350.203C28.8662 349.127 28.2773 347.667 28.2773 346.145V288.753C28.2773 286.667 29.0843 284.666 30.5207 283.192C31.9571 281.717 33.9053 280.888 35.9367 280.888Z" fill="#263238" stroke="#263238" stroke-miterlimit="10"/>
<path d="M29.3117 280.888H94.7268C96.7582 280.888 98.7064 281.717 100.143 283.192C101.579 284.666 102.386 286.667 102.386 288.753V346.145C102.386 347.667 101.797 349.127 100.749 350.203C99.7009 351.28 98.2793 351.884 96.7969 351.884H27.2416C25.7592 351.884 24.3376 351.28 23.2894 350.203C22.2412 349.127 21.6523 347.667 21.6523 346.145V288.753C21.6523 286.667 22.4593 284.666 23.8957 283.192C25.3321 281.717 27.2803 280.888 29.3117 280.888Z" fill="#636363" stroke="#263238" stroke-miterlimit="10"/>
<path d="M36.9643 356.823V301.718C36.9643 301.041 36.7026 300.392 36.2368 299.914C35.7709 299.436 35.139 299.167 34.4802 299.167C33.8214 299.167 33.1895 299.436 32.7237 299.914C32.2578 300.392 31.9961 301.041 31.9961 301.718V356.823H36.9643Z" fill="#263238"/>
<path d="M82.0952 356.823V301.718C82.0952 301.041 81.8335 300.392 81.3676 299.914C80.9017 299.436 80.2699 299.167 79.6111 299.167C78.9522 299.167 78.3204 299.436 77.8545 299.914C77.3887 300.392 77.127 301.041 77.127 301.718V356.823H82.0952Z" fill="#263238"/>
</svg>
